<?xml version="1.0" encoding="UTF-8" standalone="no"?>
<!DOCTYPE svg PUBLIC "-//W3C//DTD SVG 1.1//EN" "http://www.w3.org/Graphics/SVG/1.1/DTD/svg11.dtd">
<svg xmlns="http://www.w3.org/2000/svg" xmlns:xlink="http://www.w3.org/1999/xlink" version="1.1" width="228.366pt" height="228.366pt" viewBox="0 0 228.366 228.366">
<g enable-background="new">
<path transform="matrix(1,0,0,-1,-27.549,255.915)" stroke-width=".3985" stroke-linecap="butt" stroke-miterlimit="10" stroke-linejoin="miter" fill="none" stroke="#000000" d="M 28.3468 28.3468 L 255.12128 28.3468 "/>
<path transform="matrix(1,0,0,-1,-27.549,255.915)" stroke-width=".3985" stroke-linecap="butt" stroke-miterlimit="10" stroke-linejoin="miter" fill="none" stroke="#000000" d="M 28.3468 28.3468 L 28.3468 255.12128 "/>
<path transform="matrix(1,0,0,-1,-27.549,255.915)" stroke-width=".3985" stroke-linecap="butt" stroke-miterlimit="10" stroke-linejoin="miter" fill="none" stroke="#000000" d="M 28.3468 56.69362 L 255.12128 56.69362 "/>
<path transform="matrix(1,0,0,-1,-27.549,255.915)" stroke-width=".3985" stroke-linecap="butt" stroke-miterlimit="10" stroke-linejoin="miter" fill="none" stroke="#000000" d="M 56.69362 28.3468 L 56.69362 255.12128 "/>
<path transform="matrix(1,0,0,-1,-27.549,255.915)" stroke-width=".3985" stroke-linecap="butt" stroke-miterlimit="10" stroke-linejoin="miter" fill="none" stroke="#000000" d="M 28.3468 85.04042 L 255.12128 85.04042 "/>
<path transform="matrix(1,0,0,-1,-27.549,255.915)" stroke-width=".3985" stroke-linecap="butt" stroke-miterlimit="10" stroke-linejoin="miter" fill="none" stroke="#000000" d="M 85.04042 28.3468 L 85.04042 255.12128 "/>
<path transform="matrix(1,0,0,-1,-27.549,255.915)" stroke-width=".3985" stroke-linecap="butt" stroke-miterlimit="10" stroke-linejoin="miter" fill="none" stroke="#000000" d="M 28.3468 113.38724 L 255.12128 113.38724 "/>
<path transform="matrix(1,0,0,-1,-27.549,255.915)" stroke-width=".3985" stroke-linecap="butt" stroke-miterlimit="10" stroke-linejoin="miter" fill="none" stroke="#000000" d="M 113.38724 28.3468 L 113.38724 255.12128 "/>
<path transform="matrix(1,0,0,-1,-27.549,255.915)" stroke-width=".3985" stroke-linecap="butt" stroke-miterlimit="10" stroke-linejoin="miter" fill="none" stroke="#000000" d="M 28.3468 141.73404 L 255.12128 141.73404 "/>
<path transform="matrix(1,0,0,-1,-27.549,255.915)" stroke-width=".3985" stroke-linecap="butt" stroke-miterlimit="10" stroke-linejoin="miter" fill="none" stroke="#000000" d="M 141.73404 28.3468 L 141.73404 255.12128 "/>
<path transform="matrix(1,0,0,-1,-27.549,255.915)" stroke-width=".3985" stroke-linecap="butt" stroke-miterlimit="10" stroke-linejoin="miter" fill="none" stroke="#000000" d="M 28.3468 170.08086 L 255.12128 170.08086 "/>
<path transform="matrix(1,0,0,-1,-27.549,255.915)" stroke-width=".3985" stroke-linecap="butt" stroke-miterlimit="10" stroke-linejoin="miter" fill="none" stroke="#000000" d="M 170.08086 28.3468 L 170.08086 255.12128 "/>
<path transform="matrix(1,0,0,-1,-27.549,255.915)" stroke-width=".3985" stroke-linecap="butt" stroke-miterlimit="10" stroke-linejoin="miter" fill="none" stroke="#000000" d="M 28.3468 198.42766 L 255.12128 198.42766 "/>
<path transform="matrix(1,0,0,-1,-27.549,255.915)" stroke-width=".3985" stroke-linecap="butt" stroke-miterlimit="10" stroke-linejoin="miter" fill="none" stroke="#000000" d="M 198.42766 28.3468 L 198.42766 255.12128 "/>
<path transform="matrix(1,0,0,-1,-27.549,255.915)" stroke-width=".3985" stroke-linecap="butt" stroke-miterlimit="10" stroke-linejoin="miter" fill="none" stroke="#000000" d="M 28.3468 226.77448 L 255.12128 226.77448 "/>
<path transform="matrix(1,0,0,-1,-27.549,255.915)" stroke-width=".3985" stroke-linecap="butt" stroke-miterlimit="10" stroke-linejoin="miter" fill="none" stroke="#000000" d="M 226.77448 28.3468 L 226.77448 255.12128 "/>
<path transform="matrix(1,0,0,-1,-27.549,255.915)" stroke-width=".3985" stroke-linecap="butt" stroke-miterlimit="10" stroke-linejoin="miter" fill="none" stroke="#000000" d="M 28.3468 255.12128 L 255.12128 255.12128 "/>
<path transform="matrix(1,0,0,-1,-27.549,255.915)" stroke-width=".3985" stroke-linecap="butt" stroke-miterlimit="10" stroke-linejoin="miter" fill="none" stroke="#000000" d="M 255.12128 28.3468 L 255.12128 255.12128 "/>
<path transform="matrix(1,0,0,-1,-27.549,255.915)" stroke-width="1.59404" stroke-linecap="butt" stroke-miterlimit="10" stroke-linejoin="miter" fill="none" stroke="#000000" d="M 28.3468 141.73404 L 255.12128 141.73404 "/>
<path transform="matrix(1,0,0,-1,-27.549,255.915)" stroke-width="1.59404" stroke-linecap="butt" stroke-miterlimit="10" stroke-linejoin="miter" fill="none" stroke="#000000" d="M 141.73404 28.3468 L 141.73404 255.12128 "/>
<symbol id="font_0_2">
<path d="M .205 .64000007 C .205 .66400006 .205 .666 .18200003 .666 C .120000008 .60200008 .032000007 .60200008 0 .60200008 L 0 .57100006 C .020000004 .57100006 .07900001 .57100006 .13100001 .597 L .13100001 .079 C .13100001 .043 .128 .031000002 .038000004 .031000002 L .0060000049 .031000002 L .0060000049 0 C .04100001 .003 .128 .003 .168 .003 C .20800002 .003 .29500003 .003 .33000005 0 L .33000005 .031000002 L .29800005 .031000002 C .20800002 .031000002 .205 .042000005 .205 .079 L .205 .64000007 Z "/>
</symbol>
<symbol id="font_0_1">
<path d="M .106 .053000004 C .106 .082 .08200001 .106000009 .05300001 .106000009 C .024000004 .106000009 0 .082 0 .053000004 C 0 .024 .024000004 0 .05300001 0 C .08200001 0 .106 .024 .106 .053000004 Z "/>
</symbol>
<use xlink:href="#font_0_2" transform="matrix(9.9626,0,0,-9.9626,9.491671,18.181)"/>
<use xlink:href="#font_0_1" transform="matrix(9.9626,0,0,-9.9626,14.443084,18.181)"/>
<use xlink:href="#font_0_2" transform="matrix(9.9626,0,0,-9.9626,17.242575,18.181)"/>
<symbol id="font_0_3">
<path d="M .07700001 .07700001 L .18300002 .18 C .33900003 .31800003 .39900003 .372 .39900003 .47200004 C .39900003 .586 .30900003 .666 .18700002 .666 C .074 .666 0 .574 0 .485 C 0 .42900003 .05 .42900003 .053000008 .42900003 C .07000001 .42900003 .105000007 .441 .105000007 .48200003 C .105000007 .508 .08700001 .53400006 .052000006 .53400006 C .044000005 .53400006 .042000008 .53400006 .039 .53300008 C .062000004 .59800007 .11600001 .63500007 .17400001 .63500007 C .26500003 .63500007 .308 .554 .308 .47200004 C .308 .39200003 .25800003 .31300003 .20300003 .25100003 L .011000004 .037 C 0 .026 0 .024 0 0 L .37100003 0 L .39900003 .17400001 L .374 .17400001 C .36900003 .14400001 .36200003 .1 .352 .085 C .345 .07700001 .279 .07700001 .257 .07700001 L .07700001 .07700001 Z "/>
</symbol>
<use xlink:href="#font_0_3" transform="matrix(9.9626,0,0,-9.9626,9.103129,46.526994)"/>
<use xlink:href="#font_0_1" transform="matrix(9.9626,0,0,-9.9626,14.443084,46.526994)"/>
<use xlink:href="#font_0_2" transform="matrix(9.9626,0,0,-9.9626,17.242575,46.526994)"/>
<symbol id="font_0_4">
<path d="M .24800003 .37400005 C .33 .40100003 .388 .47100006 .388 .55 C .388 .632 .3 .688 .204 .688 C .10300001 .688 .027000003 .628 .027000003 .55200007 C .027000003 .519 .049000004 .5 .078 .5 C .109000008 .5 .12900001 .522 .12900001 .55100008 C .12900001 .6010001 .082 .6010001 .067 .6010001 C .098 .65000006 .164 .66300007 .20000002 .66300007 C .24100003 .66300007 .29600004 .64100006 .29600004 .55100008 C .29600004 .53900006 .29400004 .48100005 .268 .43700005 C .238 .38900004 .204 .38600005 .17900002 .38500003 C .171 .38400004 .14700002 .38200004 .14000002 .38200004 C .132 .38100005 .125 .38000003 .125 .37000004 C .125 .35900004 .132 .35900004 .14900002 .35900004 L .19300002 .35900004 C .275 .35900004 .312 .29100005 .312 .193 C .312 .057000005 .24300003 .028 .199 .028 C .15600002 .028 .081 .045 .046000005 .104 C .081 .09900001 .11200001 .12100001 .11200001 .15900001 C .11200001 .19500001 .085 .215 .056 .215 C .031999999 .215 0 .201 0 .157 C 0 .06600001 .093 0 .20200002 0 C .32400004 0 .41500003 .091000009 .41500003 .193 C .41500003 .27500005 .35200004 .35300005 .24800003 .37400005 Z "/>
</symbol>
<use xlink:href="#font_0_4" transform="matrix(9.9626,0,0,-9.9626,9.023429,75.09317)"/>
<use xlink:href="#font_0_1" transform="matrix(9.9626,0,0,-9.9626,14.443084,74.87399)"/>
<use xlink:href="#font_0_2" transform="matrix(9.9626,0,0,-9.9626,17.242575,74.87399)"/>
<symbol id="font_0_5">
<path d="M .266 .165 L .266 .078 C .266 .042000005 .26400004 .031000002 .19000001 .031000002 L .16900002 .031000002 L .16900002 0 C .21000001 .003 .26200003 .003 .30400003 .003 C .34600003 .003 .39900003 .003 .44000004 0 L .44000004 .031000002 L .41900004 .031000002 C .34500004 .031000002 .34300003 .042000005 .34300003 .078 L .34300003 .165 L .44300003 .165 L .44300003 .19600001 L .34300003 .19600001 L .34300003 .651 C .34300003 .671 .34300003 .67700007 .32700003 .67700007 C .31800003 .67700007 .31500004 .67700007 .307 .665 L 0 .19600001 L 0 .165 L .266 .165 M .272 .19600001 L .028 .19600001 L .272 .569 L .272 .19600001 Z "/>
</symbol>
<use xlink:href="#font_0_5" transform="matrix(9.9626,0,0,-9.9626,8.883952,103.21999)"/>
<use xlink:href="#font_0_1" transform="matrix(9.9626,0,0,-9.9626,14.443084,103.21999)"/>
<use xlink:href="#font_0_2" transform="matrix(9.9626,0,0,-9.9626,17.242575,103.21999)"/>
<use xlink:href="#font_0_2" transform="matrix(9.9626,0,0,-9.9626,37.838674,18.181)"/>
<use xlink:href="#font_0_1" transform="matrix(9.9626,0,0,-9.9626,42.790086,18.181)"/>
<use xlink:href="#font_0_3" transform="matrix(9.9626,0,0,-9.9626,45.201036,18.181)"/>
<use xlink:href="#font_0_3" transform="matrix(9.9626,0,0,-9.9626,37.45013,46.526994)"/>
<use xlink:href="#font_0_1" transform="matrix(9.9626,0,0,-9.9626,42.790086,46.526994)"/>
<use xlink:href="#font_0_3" transform="matrix(9.9626,0,0,-9.9626,45.201036,46.526994)"/>
<use xlink:href="#font_0_4" transform="matrix(9.9626,0,0,-9.9626,37.37043,75.09317)"/>
<use xlink:href="#font_0_1" transform="matrix(9.9626,0,0,-9.9626,42.790086,74.87399)"/>
<use xlink:href="#font_0_3" transform="matrix(9.9626,0,0,-9.9626,45.201036,74.87399)"/>
<use xlink:href="#font_0_5" transform="matrix(9.9626,0,0,-9.9626,37.230955,103.21999)"/>
<use xlink:href="#font_0_1" transform="matrix(9.9626,0,0,-9.9626,42.790086,103.21999)"/>
<use xlink:href="#font_0_3" transform="matrix(9.9626,0,0,-9.9626,45.201036,103.21999)"/>
<use xlink:href="#font_0_2" transform="matrix(9.9626,0,0,-9.9626,66.18468,18.181)"/>
<use xlink:href="#font_0_1" transform="matrix(9.9626,0,0,-9.9626,71.136089,18.181)"/>
<use xlink:href="#font_0_4" transform="matrix(9.9626,0,0,-9.9626,73.46733,18.400177)"/>
<use xlink:href="#font_0_3" transform="matrix(9.9626,0,0,-9.9626,65.796138,46.526994)"/>
<use xlink:href="#font_0_1" transform="matrix(9.9626,0,0,-9.9626,71.136089,46.526994)"/>
<use xlink:href="#font_0_4" transform="matrix(9.9626,0,0,-9.9626,73.46733,46.74617)"/>
<use xlink:href="#font_0_4" transform="matrix(9.9626,0,0,-9.9626,65.71643,75.09317)"/>
<use xlink:href="#font_0_1" transform="matrix(9.9626,0,0,-9.9626,71.136089,74.87399)"/>
<use xlink:href="#font_0_4" transform="matrix(9.9626,0,0,-9.9626,73.46733,75.09317)"/>
<use xlink:href="#font_0_5" transform="matrix(9.9626,0,0,-9.9626,65.57696,103.21999)"/>
<use xlink:href="#font_0_1" transform="matrix(9.9626,0,0,-9.9626,71.136089,103.21999)"/>
<use xlink:href="#font_0_4" transform="matrix(9.9626,0,0,-9.9626,73.46733,103.43917)"/>
<use xlink:href="#font_0_2" transform="matrix(9.9626,0,0,-9.9626,94.53168,18.181)"/>
<use xlink:href="#font_0_1" transform="matrix(9.9626,0,0,-9.9626,99.483089,18.181)"/>
<use xlink:href="#font_0_5" transform="matrix(9.9626,0,0,-9.9626,101.67486,18.181)"/>
<use xlink:href="#font_0_3" transform="matrix(9.9626,0,0,-9.9626,94.143138,46.526994)"/>
<use xlink:href="#font_0_1" transform="matrix(9.9626,0,0,-9.9626,99.483089,46.526994)"/>
<use xlink:href="#font_0_5" transform="matrix(9.9626,0,0,-9.9626,101.67486,46.526994)"/>
<use xlink:href="#font_0_4" transform="matrix(9.9626,0,0,-9.9626,94.06343,75.09317)"/>
<use xlink:href="#font_0_1" transform="matrix(9.9626,0,0,-9.9626,99.483089,74.87399)"/>
<use xlink:href="#font_0_5" transform="matrix(9.9626,0,0,-9.9626,101.67486,74.87399)"/>
<use xlink:href="#font_0_5" transform="matrix(9.9626,0,0,-9.9626,93.92396,103.21999)"/>
<use xlink:href="#font_0_1" transform="matrix(9.9626,0,0,-9.9626,99.483089,103.21999)"/>
<use xlink:href="#font_0_5" transform="matrix(9.9626,0,0,-9.9626,101.67486,103.21999)"/>
<use xlink:href="#font_0_2" transform="matrix(9.9626,0,0,-9.9626,9.491671,216.60599)"/>
<use xlink:href="#font_0_1" transform="matrix(9.9626,0,0,-9.9626,14.443084,216.60599)"/>
<use xlink:href="#font_0_2" transform="matrix(9.9626,0,0,-9.9626,17.242575,216.60599)"/>
<use xlink:href="#font_0_2" transform="matrix(9.9626,0,0,-9.9626,9.491671,188.259)"/>
<use xlink:href="#font_0_1" transform="matrix(9.9626,0,0,-9.9626,14.443084,188.259)"/>
<use xlink:href="#font_0_3" transform="matrix(9.9626,0,0,-9.9626,16.854035,188.259)"/>
<use xlink:href="#font_0_2" transform="matrix(9.9626,0,0,-9.9626,9.491671,159.913)"/>
<use xlink:href="#font_0_1" transform="matrix(9.9626,0,0,-9.9626,14.443084,159.913)"/>
<use xlink:href="#font_0_4" transform="matrix(9.9626,0,0,-9.9626,16.774333,160.13217)"/>
<use xlink:href="#font_0_2" transform="matrix(9.9626,0,0,-9.9626,9.491671,131.56699)"/>
<use xlink:href="#font_0_1" transform="matrix(9.9626,0,0,-9.9626,14.443084,131.56699)"/>
<use xlink:href="#font_0_5" transform="matrix(9.9626,0,0,-9.9626,16.634858,131.56699)"/>
<use xlink:href="#font_0_3" transform="matrix(9.9626,0,0,-9.9626,37.45013,216.60599)"/>
<use xlink:href="#font_0_1" transform="matrix(9.9626,0,0,-9.9626,42.790086,216.60599)"/>
<use xlink:href="#font_0_2" transform="matrix(9.9626,0,0,-9.9626,45.589578,216.60599)"/>
<use xlink:href="#font_0_3" transform="matrix(9.9626,0,0,-9.9626,37.45013,188.259)"/>
<use xlink:href="#font_0_1" transform="matrix(9.9626,0,0,-9.9626,42.790086,188.259)"/>
<use xlink:href="#font_0_3" transform="matrix(9.9626,0,0,-9.9626,45.201036,188.259)"/>
<use xlink:href="#font_0_3" transform="matrix(9.9626,0,0,-9.9626,37.45013,159.913)"/>
<use xlink:href="#font_0_1" transform="matrix(9.9626,0,0,-9.9626,42.790086,159.913)"/>
<use xlink:href="#font_0_4" transform="matrix(9.9626,0,0,-9.9626,45.121335,160.13217)"/>
<use xlink:href="#font_0_3" transform="matrix(9.9626,0,0,-9.9626,37.45013,131.56699)"/>
<use xlink:href="#font_0_1" transform="matrix(9.9626,0,0,-9.9626,42.790086,131.56699)"/>
<use xlink:href="#font_0_5" transform="matrix(9.9626,0,0,-9.9626,44.981859,131.56699)"/>
<use xlink:href="#font_0_4" transform="matrix(9.9626,0,0,-9.9626,65.71643,216.82517)"/>
<use xlink:href="#font_0_1" transform="matrix(9.9626,0,0,-9.9626,71.136089,216.60599)"/>
<use xlink:href="#font_0_2" transform="matrix(9.9626,0,0,-9.9626,73.93558,216.60599)"/>
<use xlink:href="#font_0_4" transform="matrix(9.9626,0,0,-9.9626,65.71643,188.47818)"/>
<use xlink:href="#font_0_1" transform="matrix(9.9626,0,0,-9.9626,71.136089,188.259)"/>
<use xlink:href="#font_0_3" transform="matrix(9.9626,0,0,-9.9626,73.547039,188.259)"/>
<use xlink:href="#font_0_4" transform="matrix(9.9626,0,0,-9.9626,65.71643,160.13217)"/>
<use xlink:href="#font_0_1" transform="matrix(9.9626,0,0,-9.9626,71.136089,159.913)"/>
<use xlink:href="#font_0_4" transform="matrix(9.9626,0,0,-9.9626,73.46733,160.13217)"/>
<use xlink:href="#font_0_4" transform="matrix(9.9626,0,0,-9.9626,65.71643,131.78617)"/>
<use xlink:href="#font_0_1" transform="matrix(9.9626,0,0,-9.9626,71.136089,131.56699)"/>
<use xlink:href="#font_0_5" transform="matrix(9.9626,0,0,-9.9626,73.32786,131.56699)"/>
<use xlink:href="#font_0_5" transform="matrix(9.9626,0,0,-9.9626,93.92396,216.60599)"/>
<use xlink:href="#font_0_1" transform="matrix(9.9626,0,0,-9.9626,99.483089,216.60599)"/>
<use xlink:href="#font_0_2" transform="matrix(9.9626,0,0,-9.9626,102.28258,216.60599)"/>
<use xlink:href="#font_0_5" transform="matrix(9.9626,0,0,-9.9626,93.92396,188.259)"/>
<use xlink:href="#font_0_1" transform="matrix(9.9626,0,0,-9.9626,99.483089,188.259)"/>
<use xlink:href="#font_0_3" transform="matrix(9.9626,0,0,-9.9626,101.894039,188.259)"/>
<use xlink:href="#font_0_5" transform="matrix(9.9626,0,0,-9.9626,93.92396,159.913)"/>
<use xlink:href="#font_0_1" transform="matrix(9.9626,0,0,-9.9626,99.483089,159.913)"/>
<use xlink:href="#font_0_4" transform="matrix(9.9626,0,0,-9.9626,101.81433,160.13217)"/>
<use xlink:href="#font_0_5" transform="matrix(9.9626,0,0,-9.9626,93.92396,131.56699)"/>
<use xlink:href="#font_0_1" transform="matrix(9.9626,0,0,-9.9626,99.483089,131.56699)"/>
<use xlink:href="#font_0_5" transform="matrix(9.9626,0,0,-9.9626,101.67486,131.56699)"/>
<use xlink:href="#font_0_2" transform="matrix(9.9626,0,0,-9.9626,207.91667,216.60599)"/>
<use xlink:href="#font_0_1" transform="matrix(9.9626,0,0,-9.9626,212.86808,216.60599)"/>
<use xlink:href="#font_0_2" transform="matrix(9.9626,0,0,-9.9626,215.66757,216.60599)"/>
<use xlink:href="#font_0_3" transform="matrix(9.9626,0,0,-9.9626,207.52812,188.259)"/>
<use xlink:href="#font_0_1" transform="matrix(9.9626,0,0,-9.9626,212.86808,188.259)"/>
<use xlink:href="#font_0_2" transform="matrix(9.9626,0,0,-9.9626,215.66757,188.259)"/>
<use xlink:href="#font_0_4" transform="matrix(9.9626,0,0,-9.9626,207.44843,160.13217)"/>
<use xlink:href="#font_0_1" transform="matrix(9.9626,0,0,-9.9626,212.86808,159.913)"/>
<use xlink:href="#font_0_2" transform="matrix(9.9626,0,0,-9.9626,215.66757,159.913)"/>
<use xlink:href="#font_0_5" transform="matrix(9.9626,0,0,-9.9626,207.30895,131.56699)"/>
<use xlink:href="#font_0_1" transform="matrix(9.9626,0,0,-9.9626,212.86808,131.56699)"/>
<use xlink:href="#font_0_2" transform="matrix(9.9626,0,0,-9.9626,215.66757,131.56699)"/>
<use xlink:href="#font_0_2" transform="matrix(9.9626,0,0,-9.9626,179.57068,216.60599)"/>
<use xlink:href="#font_0_1" transform="matrix(9.9626,0,0,-9.9626,184.52208,216.60599)"/>
<use xlink:href="#font_0_3" transform="matrix(9.9626,0,0,-9.9626,186.93303,216.60599)"/>
<use xlink:href="#font_0_3" transform="matrix(9.9626,0,0,-9.9626,179.18213,188.259)"/>
<use xlink:href="#font_0_1" transform="matrix(9.9626,0,0,-9.9626,184.52208,188.259)"/>
<use xlink:href="#font_0_3" transform="matrix(9.9626,0,0,-9.9626,186.93303,188.259)"/>
<use xlink:href="#font_0_4" transform="matrix(9.9626,0,0,-9.9626,179.10243,160.13217)"/>
<use xlink:href="#font_0_1" transform="matrix(9.9626,0,0,-9.9626,184.52208,159.913)"/>
<use xlink:href="#font_0_3" transform="matrix(9.9626,0,0,-9.9626,186.93303,159.913)"/>
<use xlink:href="#font_0_5" transform="matrix(9.9626,0,0,-9.9626,178.96295,131.56699)"/>
<use xlink:href="#font_0_1" transform="matrix(9.9626,0,0,-9.9626,184.52208,131.56699)"/>
<use xlink:href="#font_0_3" transform="matrix(9.9626,0,0,-9.9626,186.93303,131.56699)"/>
<use xlink:href="#font_0_2" transform="matrix(9.9626,0,0,-9.9626,151.22368,216.60599)"/>
<use xlink:href="#font_0_1" transform="matrix(9.9626,0,0,-9.9626,156.17508,216.60599)"/>
<use xlink:href="#font_0_4" transform="matrix(9.9626,0,0,-9.9626,158.50634,216.82517)"/>
<use xlink:href="#font_0_3" transform="matrix(9.9626,0,0,-9.9626,150.83513,188.259)"/>
<use xlink:href="#font_0_1" transform="matrix(9.9626,0,0,-9.9626,156.17508,188.259)"/>
<use xlink:href="#font_0_4" transform="matrix(9.9626,0,0,-9.9626,158.50634,188.47818)"/>
<use xlink:href="#font_0_4" transform="matrix(9.9626,0,0,-9.9626,150.75543,160.13217)"/>
<use xlink:href="#font_0_1" transform="matrix(9.9626,0,0,-9.9626,156.17508,159.913)"/>
<use xlink:href="#font_0_4" transform="matrix(9.9626,0,0,-9.9626,158.50634,160.13217)"/>
<use xlink:href="#font_0_5" transform="matrix(9.9626,0,0,-9.9626,150.61595,131.56699)"/>
<use xlink:href="#font_0_1" transform="matrix(9.9626,0,0,-9.9626,156.17508,131.56699)"/>
<use xlink:href="#font_0_4" transform="matrix(9.9626,0,0,-9.9626,158.50634,131.78617)"/>
<use xlink:href="#font_0_2" transform="matrix(9.9626,0,0,-9.9626,122.87767,216.60599)"/>
<use xlink:href="#font_0_1" transform="matrix(9.9626,0,0,-9.9626,127.82908,216.60599)"/>
<use xlink:href="#font_0_5" transform="matrix(9.9626,0,0,-9.9626,130.02085,216.60599)"/>
<use xlink:href="#font_0_3" transform="matrix(9.9626,0,0,-9.9626,122.48913,188.259)"/>
<use xlink:href="#font_0_1" transform="matrix(9.9626,0,0,-9.9626,127.82908,188.259)"/>
<use xlink:href="#font_0_5" transform="matrix(9.9626,0,0,-9.9626,130.02085,188.259)"/>
<use xlink:href="#font_0_4" transform="matrix(9.9626,0,0,-9.9626,122.409427,160.13217)"/>
<use xlink:href="#font_0_1" transform="matrix(9.9626,0,0,-9.9626,127.82908,159.913)"/>
<use xlink:href="#font_0_5" transform="matrix(9.9626,0,0,-9.9626,130.02085,159.913)"/>
<use xlink:href="#font_0_5" transform="matrix(9.9626,0,0,-9.9626,122.26995,131.56699)"/>
<use xlink:href="#font_0_1" transform="matrix(9.9626,0,0,-9.9626,127.82908,131.56699)"/>
<use xlink:href="#font_0_5" transform="matrix(9.9626,0,0,-9.9626,130.02085,131.56699)"/>
<use xlink:href="#font_0_2" transform="matrix(9.9626,0,0,-9.9626,207.91667,18.181)"/>
<use xlink:href="#font_0_1" transform="matrix(9.9626,0,0,-9.9626,212.86808,18.181)"/>
<use xlink:href="#font_0_2" transform="matrix(9.9626,0,0,-9.9626,215.66757,18.181)"/>
<use xlink:href="#font_0_2" transform="matrix(9.9626,0,0,-9.9626,207.91667,46.526994)"/>
<use xlink:href="#font_0_1" transform="matrix(9.9626,0,0,-9.9626,212.86808,46.526994)"/>
<use xlink:href="#font_0_3" transform="matrix(9.9626,0,0,-9.9626,215.27902,46.526994)"/>
<use xlink:href="#font_0_2" transform="matrix(9.9626,0,0,-9.9626,207.91667,74.87399)"/>
<use xlink:href="#font_0_1" transform="matrix(9.9626,0,0,-9.9626,212.86808,74.87399)"/>
<use xlink:href="#font_0_4" transform="matrix(9.9626,0,0,-9.9626,215.19933,75.09317)"/>
<use xlink:href="#font_0_2" transform="matrix(9.9626,0,0,-9.9626,207.91667,103.21999)"/>
<use xlink:href="#font_0_1" transform="matrix(9.9626,0,0,-9.9626,212.86808,103.21999)"/>
<use xlink:href="#font_0_5" transform="matrix(9.9626,0,0,-9.9626,215.05985,103.21999)"/>
<use xlink:href="#font_0_3" transform="matrix(9.9626,0,0,-9.9626,179.18213,18.181)"/>
<use xlink:href="#font_0_1" transform="matrix(9.9626,0,0,-9.9626,184.52208,18.181)"/>
<use xlink:href="#font_0_2" transform="matrix(9.9626,0,0,-9.9626,187.32158,18.181)"/>
<use xlink:href="#font_0_3" transform="matrix(9.9626,0,0,-9.9626,179.18213,46.526994)"/>
<use xlink:href="#font_0_1" transform="matrix(9.9626,0,0,-9.9626,184.52208,46.526994)"/>
<use xlink:href="#font_0_3" transform="matrix(9.9626,0,0,-9.9626,186.93303,46.526994)"/>
<use xlink:href="#font_0_3" transform="matrix(9.9626,0,0,-9.9626,179.18213,74.87399)"/>
<use xlink:href="#font_0_1" transform="matrix(9.9626,0,0,-9.9626,184.52208,74.87399)"/>
<use xlink:href="#font_0_4" transform="matrix(9.9626,0,0,-9.9626,186.85334,75.09317)"/>
<use xlink:href="#font_0_3" transform="matrix(9.9626,0,0,-9.9626,179.18213,103.21999)"/>
<use xlink:href="#font_0_1" transform="matrix(9.9626,0,0,-9.9626,184.52208,103.21999)"/>
<use xlink:href="#font_0_5" transform="matrix(9.9626,0,0,-9.9626,186.71385,103.21999)"/>
<use xlink:href="#font_0_4" transform="matrix(9.9626,0,0,-9.9626,150.75543,18.400177)"/>
<use xlink:href="#font_0_1" transform="matrix(9.9626,0,0,-9.9626,156.17508,18.181)"/>
<use xlink:href="#font_0_2" transform="matrix(9.9626,0,0,-9.9626,158.97458,18.181)"/>
<use xlink:href="#font_0_4" transform="matrix(9.9626,0,0,-9.9626,150.75543,46.74617)"/>
<use xlink:href="#font_0_1" transform="matrix(9.9626,0,0,-9.9626,156.17508,46.526994)"/>
<use xlink:href="#font_0_3" transform="matrix(9.9626,0,0,-9.9626,158.58603,46.526994)"/>
<use xlink:href="#font_0_4" transform="matrix(9.9626,0,0,-9.9626,150.75543,75.09317)"/>
<use xlink:href="#font_0_1" transform="matrix(9.9626,0,0,-9.9626,156.17508,74.87399)"/>
<use xlink:href="#font_0_4" transform="matrix(9.9626,0,0,-9.9626,158.50634,75.09317)"/>
<use xlink:href="#font_0_4" transform="matrix(9.9626,0,0,-9.9626,150.75543,103.43917)"/>
<use xlink:href="#font_0_1" transform="matrix(9.9626,0,0,-9.9626,156.17508,103.21999)"/>
<use xlink:href="#font_0_5" transform="matrix(9.9626,0,0,-9.9626,158.36685,103.21999)"/>
<use xlink:href="#font_0_5" transform="matrix(9.9626,0,0,-9.9626,122.26995,18.181)"/>
<use xlink:href="#font_0_1" transform="matrix(9.9626,0,0,-9.9626,127.82908,18.181)"/>
<use xlink:href="#font_0_2" transform="matrix(9.9626,0,0,-9.9626,130.62857,18.181)"/>
<use xlink:href="#font_0_5" transform="matrix(9.9626,0,0,-9.9626,122.26995,46.526994)"/>
<use xlink:href="#font_0_1" transform="matrix(9.9626,0,0,-9.9626,127.82908,46.526994)"/>
<use xlink:href="#font_0_3" transform="matrix(9.9626,0,0,-9.9626,130.24002,46.526994)"/>
<use xlink:href="#font_0_5" transform="matrix(9.9626,0,0,-9.9626,122.26995,74.87399)"/>
<use xlink:href="#font_0_1" transform="matrix(9.9626,0,0,-9.9626,127.82908,74.87399)"/>
<use xlink:href="#font_0_4" transform="matrix(9.9626,0,0,-9.9626,130.16033,75.09317)"/>
<use xlink:href="#font_0_5" transform="matrix(9.9626,0,0,-9.9626,122.26995,103.21999)"/>
<use xlink:href="#font_0_1" transform="matrix(9.9626,0,0,-9.9626,127.82908,103.21999)"/>
<use xlink:href="#font_0_5" transform="matrix(9.9626,0,0,-9.9626,130.02085,103.21999)"/>
</g>
</svg>
